<mxfile host="app.diagrams.net" agent="Mozilla/5.0 (X11; Linux x86_64) AppleWebKit/537.36 (KHTML, like Gecko) Chrome/135.0.0.0 Safari/537.36" version="26.2.14">
  <diagram id="C5RBs43oDa-KdzZeNtuy" name="Page-1">
    <mxGraphModel dx="946" dy="578" grid="1" gridSize="10" guides="1" tooltips="1" connect="1" arrows="1" fold="1" page="1" pageScale="1" pageWidth="827" pageHeight="1169" math="0" shadow="0">
      <root>
        <mxCell id="WIyWlLk6GJQsqaUBKTNV-0" />
        <mxCell id="WIyWlLk6GJQsqaUBKTNV-1" parent="WIyWlLk6GJQsqaUBKTNV-0" />
        <mxCell id="9p62qBrcE_9piOtcCQSv-7" style="edgeStyle=orthogonalEdgeStyle;rounded=0;orthogonalLoop=1;jettySize=auto;html=1;exitX=1;exitY=0.5;exitDx=0;exitDy=0;entryX=0;entryY=0.5;entryDx=0;entryDy=0;" edge="1" parent="WIyWlLk6GJQsqaUBKTNV-1" source="9p62qBrcE_9piOtcCQSv-1" target="9p62qBrcE_9piOtcCQSv-4">
          <mxGeometry relative="1" as="geometry" />
        </mxCell>
        <mxCell id="9p62qBrcE_9piOtcCQSv-18" style="edgeStyle=orthogonalEdgeStyle;rounded=0;orthogonalLoop=1;jettySize=auto;html=1;exitX=1;exitY=0;exitDx=0;exitDy=0;entryX=0;entryY=1;entryDx=0;entryDy=0;" edge="1" parent="WIyWlLk6GJQsqaUBKTNV-1" source="9p62qBrcE_9piOtcCQSv-1" target="9p62qBrcE_9piOtcCQSv-5">
          <mxGeometry relative="1" as="geometry" />
        </mxCell>
        <mxCell id="9p62qBrcE_9piOtcCQSv-19" style="edgeStyle=orthogonalEdgeStyle;rounded=0;orthogonalLoop=1;jettySize=auto;html=1;exitX=1;exitY=1;exitDx=0;exitDy=0;entryX=0;entryY=0;entryDx=0;entryDy=0;" edge="1" parent="WIyWlLk6GJQsqaUBKTNV-1" source="9p62qBrcE_9piOtcCQSv-1" target="9p62qBrcE_9piOtcCQSv-17">
          <mxGeometry relative="1" as="geometry" />
        </mxCell>
        <mxCell id="9p62qBrcE_9piOtcCQSv-23" style="edgeStyle=orthogonalEdgeStyle;rounded=0;orthogonalLoop=1;jettySize=auto;html=1;exitX=0.75;exitY=1;exitDx=0;exitDy=0;entryX=0;entryY=0.5;entryDx=0;entryDy=0;" edge="1" parent="WIyWlLk6GJQsqaUBKTNV-1" source="9p62qBrcE_9piOtcCQSv-1" target="9p62qBrcE_9piOtcCQSv-22">
          <mxGeometry relative="1" as="geometry" />
        </mxCell>
        <mxCell id="9p62qBrcE_9piOtcCQSv-1" value="Home" style="swimlane;whiteSpace=wrap;html=1;" vertex="1" parent="WIyWlLk6GJQsqaUBKTNV-1">
          <mxGeometry x="40" y="280" width="120" height="80" as="geometry" />
        </mxCell>
        <mxCell id="9p62qBrcE_9piOtcCQSv-6" style="edgeStyle=orthogonalEdgeStyle;rounded=0;orthogonalLoop=1;jettySize=auto;html=1;exitX=0.5;exitY=0;exitDx=0;exitDy=0;entryX=0.5;entryY=1;entryDx=0;entryDy=0;" edge="1" parent="WIyWlLk6GJQsqaUBKTNV-1" source="9p62qBrcE_9piOtcCQSv-4" target="9p62qBrcE_9piOtcCQSv-5">
          <mxGeometry relative="1" as="geometry" />
        </mxCell>
        <mxCell id="9p62qBrcE_9piOtcCQSv-9" style="edgeStyle=orthogonalEdgeStyle;rounded=0;orthogonalLoop=1;jettySize=auto;html=1;exitX=1;exitY=0.5;exitDx=0;exitDy=0;entryX=0;entryY=0.5;entryDx=0;entryDy=0;" edge="1" parent="WIyWlLk6GJQsqaUBKTNV-1" source="9p62qBrcE_9piOtcCQSv-4" target="9p62qBrcE_9piOtcCQSv-8">
          <mxGeometry relative="1" as="geometry" />
        </mxCell>
        <mxCell id="9p62qBrcE_9piOtcCQSv-4" value="Sign In" style="swimlane;whiteSpace=wrap;html=1;" vertex="1" parent="WIyWlLk6GJQsqaUBKTNV-1">
          <mxGeometry x="200" y="280" width="120" height="80" as="geometry" />
        </mxCell>
        <mxCell id="9p62qBrcE_9piOtcCQSv-5" value="Sign Up" style="swimlane;whiteSpace=wrap;html=1;" vertex="1" parent="WIyWlLk6GJQsqaUBKTNV-1">
          <mxGeometry x="200" y="160" width="120" height="80" as="geometry" />
        </mxCell>
        <mxCell id="9p62qBrcE_9piOtcCQSv-13" style="edgeStyle=orthogonalEdgeStyle;rounded=0;orthogonalLoop=1;jettySize=auto;html=1;entryX=0;entryY=0.5;entryDx=0;entryDy=0;" edge="1" parent="WIyWlLk6GJQsqaUBKTNV-1" source="9p62qBrcE_9piOtcCQSv-8" target="9p62qBrcE_9piOtcCQSv-10">
          <mxGeometry relative="1" as="geometry" />
        </mxCell>
        <mxCell id="9p62qBrcE_9piOtcCQSv-14" style="edgeStyle=orthogonalEdgeStyle;rounded=0;orthogonalLoop=1;jettySize=auto;html=1;exitX=1;exitY=0;exitDx=0;exitDy=0;entryX=0;entryY=0.5;entryDx=0;entryDy=0;" edge="1" parent="WIyWlLk6GJQsqaUBKTNV-1" source="9p62qBrcE_9piOtcCQSv-8" target="9p62qBrcE_9piOtcCQSv-11">
          <mxGeometry relative="1" as="geometry" />
        </mxCell>
        <mxCell id="9p62qBrcE_9piOtcCQSv-15" style="edgeStyle=orthogonalEdgeStyle;rounded=0;orthogonalLoop=1;jettySize=auto;html=1;exitX=1;exitY=1;exitDx=0;exitDy=0;entryX=0;entryY=0.5;entryDx=0;entryDy=0;" edge="1" parent="WIyWlLk6GJQsqaUBKTNV-1" source="9p62qBrcE_9piOtcCQSv-8" target="9p62qBrcE_9piOtcCQSv-12">
          <mxGeometry relative="1" as="geometry" />
        </mxCell>
        <mxCell id="9p62qBrcE_9piOtcCQSv-8" value="Dashboard" style="swimlane;whiteSpace=wrap;html=1;" vertex="1" parent="WIyWlLk6GJQsqaUBKTNV-1">
          <mxGeometry x="360" y="280" width="120" height="80" as="geometry" />
        </mxCell>
        <mxCell id="9p62qBrcE_9piOtcCQSv-10" value="History" style="swimlane;whiteSpace=wrap;html=1;" vertex="1" parent="WIyWlLk6GJQsqaUBKTNV-1">
          <mxGeometry x="520" y="280" width="120" height="80" as="geometry" />
        </mxCell>
        <mxCell id="9p62qBrcE_9piOtcCQSv-26" style="edgeStyle=orthogonalEdgeStyle;rounded=0;orthogonalLoop=1;jettySize=auto;html=1;exitX=1;exitY=0.5;exitDx=0;exitDy=0;entryX=0;entryY=0.5;entryDx=0;entryDy=0;" edge="1" parent="WIyWlLk6GJQsqaUBKTNV-1" source="9p62qBrcE_9piOtcCQSv-11" target="9p62qBrcE_9piOtcCQSv-25">
          <mxGeometry relative="1" as="geometry" />
        </mxCell>
        <mxCell id="9p62qBrcE_9piOtcCQSv-11" value="Vault" style="swimlane;whiteSpace=wrap;html=1;" vertex="1" parent="WIyWlLk6GJQsqaUBKTNV-1">
          <mxGeometry x="520" y="40" width="120" height="80" as="geometry" />
        </mxCell>
        <mxCell id="9p62qBrcE_9piOtcCQSv-12" value="Settings" style="swimlane;whiteSpace=wrap;html=1;" vertex="1" parent="WIyWlLk6GJQsqaUBKTNV-1">
          <mxGeometry x="520" y="520" width="120" height="80" as="geometry" />
        </mxCell>
        <mxCell id="9p62qBrcE_9piOtcCQSv-17" value="Contact" style="swimlane;whiteSpace=wrap;html=1;" vertex="1" parent="WIyWlLk6GJQsqaUBKTNV-1">
          <mxGeometry x="200" y="400" width="120" height="80" as="geometry" />
        </mxCell>
        <mxCell id="9p62qBrcE_9piOtcCQSv-22" value="Not Signed In" style="ellipse;whiteSpace=wrap;html=1;aspect=fixed;" vertex="1" parent="WIyWlLk6GJQsqaUBKTNV-1">
          <mxGeometry x="160" y="560" width="80" height="80" as="geometry" />
        </mxCell>
        <mxCell id="9p62qBrcE_9piOtcCQSv-24" value="TBD" style="swimlane;horizontal=0;whiteSpace=wrap;html=1;" vertex="1" parent="WIyWlLk6GJQsqaUBKTNV-1">
          <mxGeometry x="40" y="150" width="120" height="80" as="geometry" />
        </mxCell>
        <mxCell id="9p62qBrcE_9piOtcCQSv-25" value="Add To Vault" style="swimlane;whiteSpace=wrap;html=1;startSize=23;" vertex="1" parent="WIyWlLk6GJQsqaUBKTNV-1">
          <mxGeometry x="680" y="40" width="120" height="80" as="geometry" />
        </mxCell>
      </root>
    </mxGraphModel>
  </diagram>
</mxfile>
